<svg width="15" height="16" viewBox="0 0 15 16" fill="none" xmlns="http://www.w3.org/2000/svg">
<g clip-path="url(#clip0_60_127)">
<path d="M11.875 0.5H1.875C1.37772 0.5 0.900805 0.697544 0.549175 1.04917C0.197544 1.40081 0 1.87772 0 2.375L0 15.5H15V3.625L11.875 0.5ZM4.375 1.75H10.625V4.25H4.375V1.75ZM13.75 14.25H1.25V2.375C1.25 2.20924 1.31585 2.05027 1.43306 1.93306C1.55027 1.81585 1.70924 1.75 1.875 1.75H3.125V5.5H11.875V2.2675L13.75 4.1425V14.25Z" fill="white"/>
<path d="M7.5 6.75C7.00555 6.75 6.5222 6.89662 6.11108 7.17133C5.69995 7.44603 5.37952 7.83648 5.1903 8.29329C5.00108 8.75011 4.95157 9.25277 5.04804 9.73773C5.1445 10.2227 5.3826 10.6681 5.73223 11.0178C6.08187 11.3674 6.52732 11.6055 7.01228 11.702C7.49723 11.7984 7.9999 11.7489 8.45671 11.5597C8.91353 11.3705 9.30397 11.05 9.57868 10.6389C9.85338 10.2278 10 9.74445 10 9.25C10 8.58696 9.73661 7.95107 9.26777 7.48223C8.79893 7.01339 8.16304 6.75 7.5 6.75ZM7.5 10.5C7.25277 10.5 7.0111 10.4267 6.80554 10.2893C6.59998 10.152 6.43976 9.95676 6.34515 9.72835C6.25054 9.49995 6.22579 9.24861 6.27402 9.00614C6.32225 8.76366 6.4413 8.54093 6.61612 8.36612C6.79093 8.1913 7.01366 8.07225 7.25614 8.02402C7.49861 7.97579 7.74995 8.00054 7.97836 8.09515C8.20676 8.18976 8.40199 8.34998 8.53934 8.55554C8.67669 8.7611 8.75 9.00277 8.75 9.25C8.75 9.58152 8.61831 9.89946 8.38388 10.1339C8.14946 10.3683 7.83152 10.5 7.5 10.5Z" fill="white"/>
</g>
<defs>
<clipPath id="clip0_60_127">
<rect width="15" height="15" fill="white" transform="translate(0 0.5)"/>
</clipPath>
</defs>
</svg>
