<svg width="14" height="14" viewBox="0 0 14 14" fill="none" xmlns="http://www.w3.org/2000/svg">
<g clip-path="url(#clip0_31_1681)">
<path d="M9.47071 10.401C8.4375 11.2189 7.1546 11.6667 5.83725 11.6667C5.69088 11.6667 5.54451 11.6667 5.39814 11.6494C3.89998 11.5375 2.51376 10.8573 1.50638 9.74662C0.499 8.63592 -0.0348254 7.18942 -0.000385009 5.69127C0.0426654 4.1845 0.645371 2.77245 1.70441 1.7048C2.76345 0.637146 4.18412 0.0430504 5.69088 0H5.83725C7.28375 0 8.67858 0.533825 9.75484 1.50677C10.8655 2.51415 11.5457 3.90037 11.6577 5.39852C11.7696 6.87085 11.3219 8.31734 10.4006 9.47109L13.9996 13.0701L13.0697 14L9.47071 10.401ZM5.84586 1.33456C5.55312 1.33456 5.25177 1.36039 4.96763 1.42066C4.08941 1.59287 3.28867 2.02337 2.66013 2.65191C2.0316 3.28044 1.60109 4.08118 1.42889 4.95941C1.25669 5.83764 1.34279 6.73309 1.68719 7.55966C2.0316 8.38622 2.59986 9.08364 3.34894 9.58303C4.09802 10.0824 4.95902 10.3407 5.85447 10.3407C7.05989 10.3407 8.18781 9.86716 9.04021 9.02337C9.8926 8.17097 10.3575 7.04305 10.3575 5.83764C10.3575 4.94219 10.0906 4.08118 9.59986 3.3321C9.10048 2.59164 8.40306 2.01476 7.57649 1.67036C7.02545 1.44649 6.44857 1.32595 5.85447 1.32595L5.84586 1.33456Z" fill="#7F858D"/>
<path d="M13.8794 13.0701L10.289 9.47971C11.2189 8.33457 11.6839 6.87946 11.5719 5.40714C11.46 3.93481 10.7884 2.56581 9.69492 1.57565C8.60144 0.585487 7.16356 0.0516619 5.69123 0.0861023C4.21891 0.120543 2.81546 0.723249 1.77364 1.76507C0.723211 2.8155 0.129115 4.21894 0.086065 5.69127C0.0516246 7.16359 0.57684 8.60148 1.567 9.69496C2.55716 10.7884 3.92616 11.46 5.39849 11.572C6.87081 11.6839 8.32592 11.2276 9.47106 10.2891L13.0615 13.8795L13.8708 13.0701H13.8794ZM5.84621 10.4354C4.94215 10.4354 4.0467 10.1685 3.29763 9.66052C2.53994 9.15252 1.95445 8.43789 1.61005 7.60271C1.26565 6.76753 1.17094 5.83764 1.35175 4.9508C1.53256 4.06396 1.96306 3.246 2.60882 2.60025C3.25458 1.95449 4.07254 1.52399 4.95937 1.34317C5.84621 1.16236 6.7761 1.25707 7.61128 1.60148C8.44646 1.94588 9.16971 2.53998 9.66909 3.28905C10.1771 4.04674 10.444 4.93358 10.444 5.83764C10.444 7.05166 9.96183 8.22263 9.10083 9.08364C8.23982 9.94465 7.06885 10.4268 5.85482 10.4268L5.84621 10.4354Z" fill="#7F858D"/>
</g>
<defs>
<clipPath id="clip0_31_1681">
<rect width="14" height="14" fill="white"/>
</clipPath>
</defs>
</svg>
